<svg width="300" height="400" viewBox="0 0 300 400" fill="none" xmlns="http://www.w3.org/2000/svg">
  <rect width="300" height="400" fill="#1E1E2A" />
  <rect x="50" y="50" width="200" height="300" rx="8" fill="#2A2A3C" />
  
  <!-- Manga book pages -->
  <path d="M150 50V350" stroke="#3A3A4C" stroke-width="2" />
  <path d="M70 80H130" stroke="#3A3A4C" stroke-width="2" />
  <path d="M70 110H130" stroke="#3A3A4C" stroke-width="2" />
  <path d="M70 140H130" stroke="#3A3A4C" stroke-width="2" />
  <path d="M70 170H130" stroke="#3A3A4C" stroke-width="2" />
  <path d="M70 200H130" stroke="#3A3A4C" stroke-width="2" />
  <path d="M70 230H130" stroke="#3A3A4C" stroke-width="2" />
  <path d="M70 260H130" stroke="#3A3A4C" stroke-width="2" />
  <path d="M70 290H130" stroke="#3A3A4C" stroke-width="2" />
  <path d="M70 320H130" stroke="#3A3A4C" stroke-width="2" />
  
  <path d="M170 80H230" stroke="#3A3A4C" stroke-width="2" />
  <path d="M170 110H230" stroke="#3A3A4C" stroke-width="2" />
  <path d="M170 140H230" stroke="#3A3A4C" stroke-width="2" />
  <path d="M170 170H230" stroke="#3A3A4C" stroke-width="2" />
  <path d="M170 200H230" stroke="#3A3A4C" stroke-width="2" />
  <path d="M170 230H230" stroke="#3A3A4C" stroke-width="2" />
  <path d="M170 260H230" stroke="#3A3A4C" stroke-width="2" />
  <path d="M170 290H230" stroke="#3A3A4C" stroke-width="2" />
  <path d="M170 320H230" stroke="#3A3A4C" stroke-width="2" />
  
  <!-- Manga logo -->
  <text x="150" y="380" font-family="Arial" font-size="14" fill="#6C63FF" text-anchor="middle">MANGAVERSE</text>
</svg>
